<svg xmlns="http://www.w3.org/2000/svg" width="457" height="366" viewBox="0 0 457 366">
    <g fill="none" fill-rule="evenodd">
        <path fill="#DDE3E9" d="M319.659 329.633c4.84-12.634 11.786-24.504 18.352-36.287 10.546-18.926 22.661-34.523 41.786-44.866 31.101-16.823 64.671-22.418 99.3-20.506 18.05.997 36.49 3.744 53.445 10.174 7.545 2.863 14.89 6.228 22.15 9.751 4.485 2.175 8.894 4.5 13.282 6.866 2.64 1.425 7.373 2.88 9.055 5.52 2.02 3.172-.08 7.699-3.917 7.805-3.266.092-7.192-3.174-10.049-4.643-6.574-3.382-13.302-6.41-20.11-9.282-10.628-4.482-21.295-7.9-32.61-10.012-22.932-4.278-47.173-4.548-70.331-1.52 8.204 19.49 5.573 38.963-4.866 57.137-14.861 25.873-33.462 45.413-60.303 58.375-17.432 8.419-35.343 8.758-53.81 4.617-3.492-.783-8.254-2.368-9.343-6.373-1.048-3.856 1.765-9.008 2.943-12.635 1.546-4.758 3.236-9.45 5.026-14.12z"/>
        <path fill="#C1DEE2" d="M394.994 65.611c-18.957-3.03-38.06-4.704-57.12-6.95 2.316.46 4.624.976 6.915 1.547-5.79-.423-12.154 1.128-18.073 1.06-6.6-.075-13.226-.696-19.778-1.396-12.788-1.365-25.512-2.933-38.353-3.81-14.307-.975-28.685-1.207-43.017-1.82-12.163-.52-24.744-1.514-36.932-.64-6.643.476-13.568.49-20.294.87-2.252.128-26.391-.83-26.366-.89.553-1.304 11.87-2.263 13.571-2.496 4.97-.68 9.95-.937 14.947-1.21-4.539-2.968-8.758-6.403-12.345-10.513-1.107-1.268-9.376-10.382-8.722-11.927.327-.771 16.716 14.613 18.038 16.239 1.074 1.32 2.248 3.438 3.518 4.541 2.052 1.783 1.625 1.133 4.04 1.409 4.427.505 9.372-.44 13.836-.459 2.393-.034 10.311.739 14.346-.07 13.078-.938 27.836.72 41.199 1.456-5.31-3.324-10.139-7.218-14.58-11.656-1.055-1.053-11.132-10.148-10.635-11.322.56-1.32 17.32 11.777 18.663 13.159 2.492 2.566 4.578 5.82 7.216 8.195 2.895 2.606 6.811 1.858 10.83 2.028 14.78.63 29.438 1.903 44.116 3.614-.3-26.45-27.113-43.09-47.655-53.545-14.805-7.535-31.336-11.774-47.7-14.358-21.838-3.448-44.425-3.229-66.517-2.2C112.4-14.334 87.307-8.3 63.338 1.647 50.8 6.849 38.907 13.788 27.422 21.09c-5.61 3.566-10.688 7.521-15.115 12.587-1.995 2.285-3.779 4.742-5.428 7.291-1.253 1.937-4.999 5.383-5.24 7.329-2.09 15.833-.095 29.252 8.503 42.655 8.138 12.688 19.772 23.363 32.058 31.772 13.681 9.364 28.451 16.5 44.592 20.324 12.316 2.918 25.01 4.314 37.595 5.658 44.762 4.78 96.235 1.683 134.078-27.066 12.25-9.305 22.147-21.203 30.263-34.285 1.913-3.083 3.799-6.173 5.402-9.434 1.081-2.198 2.725-10.237 4.384-11.455 2.275-1.669 10.355.253 13.5.442 23.904 1.436 47.71 3.753 71.446 6.764 25.253 3.203 50.168 7.813 74.979 13.378 10.552 2.368 21.069 4.775 31.545 7.471 2.438.627 9.489 4.05 12.46 2.67 1.88-.872 2.204-3.097.994-4.605-2.102-2.624-10.63-3.435-13.832-4.345-31.26-8.889-62.445-17.487-94.612-22.63z"/>
        <path fill="#89C5CC" d="M360.489 154.91c-1.19-.41-20.645 1.588-20.578-.367.028-.84 7.56-1.438 8.596-1.476 4.096-.15 8.112.636 11.982 1.844zm18.055-33.414c.044.12 4.103 2.42 5.28 3.17a140.207 140.207 0 0 1 7.311 5.01c-3.898-3.226-7.666-6.13-12.59-8.18zM251.66 232.558c-1.606 1.776-5.427.636-3.225-1.46 1.785-1.692 1.616-1.75 1.58-3.958-.028-1.793-.519-3.717-.679-5.524-.338-3.832-.408-7.633-.01-11.463.853-8.208 3.083-16.144 6.388-23.655 5.767-13.107 13.111-26.284 23.062-36.518 15.823-16.274 37.158-29.033 58.244-36.258 13.06-4.474 26.088-6.668 39.343-1.7 6.625 2.482 12.881 6.26 17.74 11.59 1.27 1.395 2.229 3.206 3.567 4.516 2.057 2.013 1.392 1.545 4.464.394 3.355-1.257 6.713-2.501 10.075-3.737 8.805-3.233 17.705-6.408 26.804-8.659a74.192 74.192 0 0 1 9.086-1.65c2.314-.275 11.14-2.044 13.43-.147 3.814 3.154-2.242 4.223-4.303 4.246-1.805.02-3.616.113-5.415.274-4.53.406-8.992 1.274-13.388 2.451-4.75 1.273-9.423 2.873-14.08 4.463a536.469 536.469 0 0 0-12.967 4.64 1549.27 1549.27 0 0 0-7.166 2.68c-.816.307-2.502.42-1.842 1.332-5.093 1.76-9.973 4.748-14.781 7.198-5.888 3.002-11.767 6.069-17.398 9.56-4.062 2.517-8.045 5.179-11.839 8.111a72.504 72.504 0 0 0-6.32 5.522c-1.104 1.08-5.809 4.732-5.86 6.272.022-.662 5.934-3.446 6.636-3.888 2.809-1.766 5.493-3.696 8.17-5.668 4.965-3.66 10.097-7.036 15.448-10.065.52.948-2.153 4.717-2.683 5.85a59.27 59.27 0 0 0-3.034 7.855c-1.44 4.744-3.095 10.545-3.255 15.273.047-1.394 2.429-4.546 3.096-5.975a76.057 76.057 0 0 0 2.885-7.03c.77-2.206 1.378-4.458 1.943-6.728.565-2.27.724-6.404 2.013-8.442.077-.123 1.251.05 1.584-.432.335-.484.28-1.909.37-2.021 1.337-1.66 5.083-2.718 6.941-3.679 4.817-2.492 9.667-4.915 14.505-7.363 1.499-.759 2.542-1.802 3.71-1.046 1.246.808 1.912 4.436 2.328 5.86 1.544 5.284 1.934 10.596.845 16.009-2.038 10.139-6.75 18.833-13.264 26.59-24.951 29.714-55.894 53.71-94.36 59.994-15.924 2.601-40.709 5.13-48.388-13.614z"/>
    </g>
</svg>
