<svg xmlns="http://www.w3.org/2000/svg" width="263" height="403" viewBox="0 0 263 403">
    <g fill="#89C5CC" fill-rule="evenodd">
        <path d="M236.349 99.608c4.693 2.29 9.326 4.666 13.893 7.196 3.482 1.93 9.303 3.85 11.238 7.556 2.011 3.849-.518 8.487-2.643 11.597-11.233 16.449-25.225 29.068-44.59 35.159-29.817 9.378-57.983 7.795-87.778-1.324-20.93-6.406-36.789-19.42-44.341-40.24-19.93 14.335-38.347 31.973-52.912 51.737-7.186 9.752-12.945 20.04-17.92 31.114-3.184 7.094-6.198 14.25-8.841 21.566-1.15 3.179-1.842 8.502-4.415 10.78-3.02 2.677-7.85.723-8.554-3.159-.585-3.23 2.014-7.746 3.03-10.737 1.686-4.966 3.418-9.915 5.316-14.806 3.07-7.917 6.317-15.775 10.075-23.392 8.445-17.113 20.65-32.476 33.8-46.219 25.224-26.364 54.972-46.22 90.803-55.707 22.032-5.834 42.416-2.606 63.962 4.298 13.415 4.3 27.184 8.39 39.877 14.581"/>
        <path d="M108.898 1.784c.945-.169 2.685.457 3.528.68 3.505.925 6.931 2.255 10.189 3.844 10.038 4.915 19.764 10.885 28.807 17.417 5.741 4.148 11.537 11.509 18.747 12.563 12.56 1.836 23.463 7.364 31.363 17.342 7.222 9.123 10.188 21.207 9.837 32.53-.054 1.709-.013 8.114-.985 11.945-.038.862-.09 1.723-.176 2.58a121.473 121.473 0 0 1-.98 7.279c-.166 1.029-.452 3.342-1.447 3.331a66.492 66.492 0 0 1-.224 9.068c-.841 8.767-1.774 18.38-4.631 26.713a40.921 40.921 0 0 1-4.229 8.77c-.869 1.36-2.213 4.291-3.72 4.912-3.197 1.318-2.67-2.453-1.681-3.89 7.539-10.947 9.52-23.714 10.87-36.803.873-8.463-.242-17.14-2.18-25.45-1.567-6.726-3.918-12.568-7.729-18.379-4.66-7.106-10.14-13.686-15.55-20.244-3.557-4.315-7.147-8.575-10.973-12.663-.85-.91-1.996-2.736-3.153-3.305-2.447-1.205-6.807-1.082-9.505-1.56-8.873-1.575-18.15-2.574-26.752-5.364-5.518-1.789-9.955-4.968-13.94-9.051-.408-.417-1.013-1.274-1.71-2.416-2.91-3.134-5.45-6.53-7.176-10.486-.994-2.279-1.625-4.904-2.196-7.305a2.943 2.943 0 0 1 .195-1.957c-.238-.324-.354-.622-.29-.874.471-1.858 3.69-.327 5.691.773M103.135 187.062c50.693 24.725 64.74 82.578 59.997 133.273-1.788 19.11-9.006 37.529-14.927 55.621-1.9 5.806-6.221 13.958-6.395 19.872-.063 2.144 1.45 3.664-.588 5.633-1.234 1.193-2.702 1.576-4.395 1.107-3.478-.964-6.278-6.665-8.338-9.38-17.082-22.528-23.332-47.527-24.904-75.15-.975-17.122-1.81-34.81.914-51.755 1.665-10.352 4.706-20.626 8.334-30.438 1.43-3.863 2.913-7.809 4.742-11.505 1.816-3.668 4.46-4.784 7.242-7.39-13.766-14.707-32-25.779-52.397-27.445-18.866-1.54-37.863 3.998-52.562 15.428-3.82 2.971-7.307 6.37-10.432 10.048-2.047 2.41-3.822 5.964-6.34 7.816-6.108 4.489-10.799-2.792-7.42-8.095 9.422-14.796 25.978-26.188 42.648-31.54 21.023-6.748 44.662-5.932 64.82 3.9"/>
    </g>
</svg>
