<svg xmlns="http://www.w3.org/2000/svg" width="310" height="303" viewBox="0 0 310 303">
    <g fill="none" fill-rule="evenodd">
        <path fill="#69A1AC" d="M179.59 1.2c6.236-1.355 13.123-1.252 19.476-1.14 34.071.461 67.529 16.503 89.304 42.136 18.537 21.822 23.634 48.952 27.296 76.378.364 2.723.52 5.429.724 8.157.044.586.11 1.108.18 1.6 1.44 1.28 2.196 2.774 1.343 4.414 3.173 6.904 5.857 13.984 8.16 21.287 6.778 21.494 13.673 43.396 9.425 65.998-.992-12.438-3.08-25.157-5.575-37.39-.144-.703-.299-1.4-.46-2.094l-.049-.219a81.436 81.436 0 0 0-3.43-10.957l-.043-.116c-.185-.471-.38-.94-.574-1.408-.4-.969-.81-1.937-1.247-2.9-.147-.327-.289-.658-.425-.991-2.033-4.957-2.892-10.542-4.714-15.671a109.984 109.984 0 0 0-1.454-3.687c-1.29-3.11-2.716-6.182-4.223-9.222-.82-.612-1.258-2.131-1.964-3.512-.146-.272-1.288-2.086-1.628-3.13-.888-1.708-1.772-3.417-2.666-5.121l.08.03c-.895-1.638-1.792-3.268-2.682-4.89l-.59-1.072-.96-1.706c-2.984-5.311-6.148-10.517-9.435-15.657-1.172-1.835-3.974-4.465-4.512-6.525-.02-.077-.024-.148-.036-.222-7.131-9.96-15.34-19.147-25.185-26.426 1.19 1.28 3.72 5.62 4.388 6.48 2.047 2.632 4.269 5.082 6.499 7.561 3.994 4.442 7.893 9.025 11.358 13.871 6.337 8.863 11.803 18.19 16.97 27.705.05.056.104.11.15.166 2.597 3.184 4.232 7.996 6.102 11.638-7.4-3.408-15.58-5.628-23.174-8.654-7.572-3.017-14.939-6.376-22.05-10.321-9.453-5.243-19.258-11.163-28.19-17.863-10.234-6.313-18.835-15.004-26.426-24.123-8.982-10.79-17.214-21.674-22.305-34.775-2.5-6.438-4.468-13.15-5.635-19.942a25.586 25.586 0 0 0-.186-.95 65.142 65.142 0 0 1-3.156-7.198c-1.422-3.891-4.78-8.172 1.518-9.54"/>
        <path fill="#C1DEE2" d="M1.225 157.332c-1.376 4.532-.228 8.52 5.203 7.396 1.629-.337 3.31-.877 4.919-1.331 8.939-2.526 17.797-5.3 26.782-7.665 17.285-4.548 34.825-6.75 52.535-8.79 13.943-1.606 27.99-2.574 41.974-1.958 17.233.76 34.048 4.106 50.734 7.956 17.17 3.964 34.8 8.868 51.35 15.277 18.823 7.29 36.173 16.294 53.387 26.705 42.538 25.73 80.353 57.863 113.429 94.762a4183.92 4183.92 0 0 1 14.235 15.98c3.566 4.02 6.928 8.216 10.47 12.252 2.932 3.343 6.365 1.438 4.107-2.477-2.592-4.497-7.04-8.536-10.421-12.434-3.017-3.477-6.038-6.953-9.057-10.43-3.54-4.075-7.1-8.128-10.733-12.12a601.894 601.894 0 0 0-54.164-52.49c-14.522-12.4-30.203-23.256-46.293-33.583-18.492-11.867-38.123-24.282-59.29-31.307a7.627 7.627 0 0 0-.773-.944c4.113-3.708-8.507-16.19-10.783-18.625-5.782-6.182-12.141-11.937-18.658-17.347-5.348-4.44-11.065-8.314-17.325-11.407-9.275-4.583-19.338-7.311-29.574-9.079-17.733-3.06-36.35-4.72-54.44-3.219-33.012 2.739-65.52 12.94-91.726 34.114-6.71 5.422-13.36 12.44-15.888 20.764z"/>
        <path fill="#89C5CC" d="M263.407 192.09c-13.72 0-25.927 1.781-38.567 7.23-10.912 4.702-20.855 10.927-30.51 17.705-13.58 9.532-24.276 20.626-31.763 35.325-4.473 8.782-7.755 21.208-4.75 30.786 3.538 11.281 13.254 20.69 26.05 18.702 7.914-1.228 15.168-6.463 21.182-11.39 7.195-5.894 12.954-12.981 17.71-20.853 7.757-12.84 12.316-27.355 18.905-40.772 3.127-6.368 6.15-12.782 9.894-18.834 1.854-2.997 3.828-5.965 6.641-8.192 1.505-1.191 7.85-3.253 5.424-5.929 35.576.467 67.093 27.773 73.922 61.572.637 3.15 1.134 6.326 1.659 9.496.331 2.001.198 9.382 1.988 10.66 3.948 2.82 2.289-5.747 2.12-6.981a587.636 587.636 0 0 0-1.396-9.554c-2.667-17.298-10.373-33.38-23.223-45.716-14.696-14.106-34.523-23.255-55.286-23.255z"/>
    </g>
</svg>
