<svg xmlns="http://www.w3.org/2000/svg" width="290" height="387" viewBox="0 0 290 387">
    <g fill="none" fill-rule="evenodd">
        <path fill="#69A1AC" d="M205.005 382.174c-7.298 2.41-15.558 3.152-23.18 3.817-40.86 3.736-82.947-11.28-112.253-39.262-24.948-23.822-34.47-55.698-42.31-88.109-.778-3.218-1.305-6.441-1.894-9.686a28.518 28.518 0 0 0-.417-1.895c-1.886-1.353-2.98-3.047-2.165-5.12-4.67-7.877-8.775-16.025-12.453-24.488-10.825-24.908-21.84-50.292-19.602-77.917 2.756 14.783 6.857 29.765 11.388 44.113.26.824.534 1.64.815 2.451l.085.257a98.206 98.206 0 0 0 5.487 12.702c.023.045.044.09.068.133.28.541.573 1.078.864 1.615a112.7 112.7 0 0 0 1.858 3.318c.218.374.43.753.634 1.136 3.06 5.685 4.792 12.271 7.62 18.19a132.617 132.617 0 0 0 2.206 4.235c1.937 3.565 4.031 7.068 6.219 10.521 1.058.631 1.774 2.397 2.794 3.962.209.308 1.805 2.338 2.344 3.548 1.278 1.935 2.553 3.872 3.838 5.802l-.1-.025c1.278 1.849 2.557 3.69 3.828 5.523l.842 1.21 1.363 1.924c4.243 5.99 8.688 11.83 13.271 17.579 1.636 2.05 5.323 4.85 6.226 7.252.033.09.047.174.071.261 9.795 11.04 20.783 21.019 33.49 28.504-1.587-1.383-5.163-6.268-6.072-7.214-2.782-2.897-5.752-5.554-8.735-8.245-5.342-4.821-10.59-9.823-15.35-15.196-8.704-9.825-16.426-20.316-23.813-31.07-.065-.061-.136-.118-.2-.18-3.51-3.49-6.074-9.051-8.772-13.181 9.29 3.153 19.367 4.784 28.841 7.456 9.449 2.662 18.693 5.762 27.707 9.595 11.98 5.095 24.468 10.956 36.007 17.861 13.052 6.28 24.446 15.613 34.686 25.588 12.116 11.801 23.345 23.81 31.091 38.873 3.806 7.401 7.008 15.2 9.26 23.192.099.349.217.726.344 1.116 1.724 2.661 3.304 5.402 4.685 8.23 2.193 4.485 6.753 9.192-.616 11.624"/>
        <path fill="#C1DEE2" d="M286.358 216.813c-7.14 7.677-18.049 11.774-28.176 14.11-39.557 9.128-80.12 3.068-117.278-11.334-20.362-7.891-39.622-19.48-57.183-32.12-10.137-7.296-19.577-15.542-27.184-25.38-5.134-6.64-9.268-13.839-12.702-21.456-4.186-9.282-8.018-18.854-11-28.585-1.174-3.832-8.217-23.978-1.806-25.826a9.153 9.153 0 0 1-.336-1.43C11.516 66.058-3.147 42.299-16.867 19.73c-11.94-19.64-23.154-39.635-32.3-60.691a721.926 721.926 0 0 1-30.802-85.29c-1.817-6.23-3.523-12.49-5.195-18.761-1.425-5.35-2.853-10.7-4.276-16.05-1.594-5.997-4.267-12.707-4.691-18.936-.37-5.424 4.352-5.68 5.755-.52 1.694 6.23 3.11 12.538 4.838 18.765a5019.96 5019.96 0 0 0 6.94 24.78C-60.352-79.649-36.458-24.986-4.064 25.231c13.11 20.321 27.11 39.191 43.613 56.98 14.509 15.64 30.984 30.221 47.457 43.541 16.012 12.943 32.43 25.408 50.668 35.296 14.8 8.024 30.507 14.365 46.44 19.961 20.235 7.108 40.374 13.951 61.48 18.122 10.97 2.167 22.02 3.825 33.026 5.794 1.98.354 4.085.655 6.025 1.147 6.47 1.64 5.6 6.56 1.713 10.74"/>
        <path fill="#89C5CC" d="M90.5 73c16.506 0 31.195-2.147 46.404-8.713 13.129-5.668 25.093-13.17 36.71-21.338C189.952 31.46 202.822 18.09 211.831.376c5.382-10.584 9.33-25.56 5.716-37.103-4.258-13.595-15.949-24.934-31.346-22.538-9.521 1.48-18.25 7.788-25.486 13.726-8.656 7.103-15.586 15.645-21.308 25.131-9.334 15.475-14.819 32.968-22.748 49.138-3.762 7.675-7.398 15.404-11.905 22.698-2.23 3.612-4.606 7.19-7.99 9.873-1.81 1.436-9.445 3.92-6.525 7.145-42.807-.563-80.728-33.47-88.946-74.204C.53-9.555-.069-13.382-.7-17.202-1.1-19.614-.94-28.51-3.093-30.05c-4.751-3.4-2.754 6.927-2.55 8.413a709.283 709.283 0 0 0 1.679 11.515c3.208 20.847 12.48 40.227 27.943 55.095C41.66 61.973 65.517 73 90.499 73z"/>
    </g>
</svg>
