<svg xmlns="http://www.w3.org/2000/svg" width="334" height="47" viewBox="0 0 334 47">
    <g fill="none" fill-rule="evenodd">
        <rect width="161.896" height="21.045" y="18.239" fill="#535FFF" rx="3.516"/>
        <path fill="#FFF" d="M17.365 29.112h1.89c2.168 0 3.72-.278 4.658-.833.937-.555 1.406-1.447 1.406-2.675 0-1.227-.469-2.119-1.406-2.674-.938-.555-2.49-.833-4.659-.833h-1.89v7.015zm0-13.416h1.582c2.695 0 4.043-1.067 4.043-3.2 0-2.134-1.348-3.201-4.043-3.201h-1.582v6.4zM8.75 2.718h12.833c3.047 0 5.361.731 6.943 2.192 1.582 1.462 2.374 3.566 2.374 6.314 0 1.666-.3 3.047-.901 4.143-.601 1.096-1.517 2.024-2.747 2.784 1.23.234 2.278.592 3.142 1.074.864.483 1.568 1.074 2.11 1.776.542.701.93 1.49 1.164 2.367.235.877.352 1.813.352 2.806 0 1.55-.271 2.923-.813 4.122a8.373 8.373 0 0 1-2.286 3.025c-.981.818-2.175 1.432-3.581 1.841-1.407.41-2.989.614-4.747.614H8.751V2.718zM46.37 13.285v22.491h-7.954V13.285h7.954zm-8.482-8.638c0-.613.117-1.19.352-1.731a4.548 4.548 0 0 1 2.395-2.39 4.335 4.335 0 0 1 1.736-.35c.615 0 1.194.116 1.736.35a4.56 4.56 0 0 1 2.395 2.39c.234.54.351 1.118.351 1.731 0 .614-.117 1.191-.351 1.732a4.548 4.548 0 0 1-2.395 2.39c-.542.233-1.12.35-1.736.35a4.335 4.335 0 0 1-1.736-.35 4.56 4.56 0 0 1-2.395-2.39 4.307 4.307 0 0 1-.352-1.732zm13.931 8.638h7.955v2.85c1.084-1.316 2.183-2.2 3.296-2.653 1.113-.453 2.417-.68 3.911-.68 1.582 0 2.937.256 4.065.767a8.105 8.105 0 0 1 2.879 2.17 6.23 6.23 0 0 1 1.318 2.544c.235.935.352 2.002.352 3.2v14.293h-7.954V24.421c0-1.111-.081-2.01-.242-2.697-.161-.687-.447-1.235-.857-1.644-.352-.35-.747-.599-1.187-.745a4.428 4.428 0 0 0-1.406-.22c-1.348 0-2.38.403-3.098 1.206-.718.804-1.077 1.951-1.077 3.442v12.013h-7.955V13.285zm36.565 11.18c0 .73.132 1.41.395 2.038a5.25 5.25 0 0 0 1.077 1.644c.454.468.996.833 1.626 1.096a5.25 5.25 0 0 0 2.044.395c.703 0 1.37-.131 2-.395a4.834 4.834 0 0 0 1.625-1.096 5.667 5.667 0 0 0 1.099-1.622 4.721 4.721 0 0 0 .417-1.973c0-.701-.139-1.366-.417-1.995a5.578 5.578 0 0 0-1.099-1.644 4.834 4.834 0 0 0-1.626-1.096 5.137 5.137 0 0 0-2-.394 5.25 5.25 0 0 0-2.043.394 4.834 4.834 0 0 0-1.626 1.096 5.402 5.402 0 0 0-1.077 1.6 4.79 4.79 0 0 0-.395 1.952zm10.02-11.18h7.998v22.491h-7.998v-2.499c-1.7 2.134-4 3.2-6.9 3.2-1.64 0-3.15-.299-4.527-.898a10.917 10.917 0 0 1-3.603-2.521c-1.026-1.082-1.824-2.353-2.395-3.815-.572-1.461-.857-3.054-.857-4.778 0-1.608.278-3.135.835-4.582.556-1.447 1.333-2.711 2.329-3.793a10.982 10.982 0 0 1 3.56-2.564c1.377-.629 2.9-.943 4.57-.943 2.813 0 5.142.98 6.988 2.938v-2.236zm13.404 0h7.954v3.682c.85-1.344 1.89-2.374 3.12-3.09 1.23-.717 2.666-1.075 4.307-1.075h.681c.25 0 .535.03.857.088v7.585a7.572 7.572 0 0 0-3.428-.79c-1.845 0-3.23.549-4.153 1.645-.922 1.096-1.384 2.696-1.384 4.8v9.646h-7.954V13.285zm30.016 19.422l-10.9-19.422h9.23l6.02 11.53 5.845-11.53h9.142L143.054 47h-8.921l7.69-14.293zm43.64-29.989l7.998 20.124 8.042-20.124h9.361L196.89 35.776h-6.856L176.103 2.718h9.36zm36.827 10.567v22.491h-7.954V13.285h7.954zm-8.482-8.638c0-.613.118-1.19.352-1.731a4.548 4.548 0 0 1 2.395-2.39 4.335 4.335 0 0 1 1.736-.35c.615 0 1.194.116 1.736.35a4.56 4.56 0 0 1 2.395 2.39c.235.54.352 1.118.352 1.731 0 .614-.117 1.191-.352 1.732a4.548 4.548 0 0 1-2.395 2.39c-.542.233-1.12.35-1.736.35a4.335 4.335 0 0 1-1.736-.35 4.56 4.56 0 0 1-2.395-2.39 4.307 4.307 0 0 1-.352-1.732zm28.874 14.425c-1.465-.76-2.9-1.14-4.307-1.14-.732 0-1.326.146-1.78.438-.454.293-.681.687-.681 1.184 0 .263.037.475.11.636.073.16.234.314.483.46.25.146.616.278 1.099.395.483.117 1.12.263 1.912.438 2.197.439 3.838 1.22 4.922 2.346 1.084 1.125 1.626 2.565 1.626 4.318 0 1.316-.264 2.5-.791 3.552a7.557 7.557 0 0 1-2.198 2.652c-.937.716-2.065 1.272-3.384 1.666-1.318.395-2.768.592-4.35.592-3.047 0-6.05-.862-9.01-2.587l2.901-5.612c2.227 1.52 4.336 2.28 6.328 2.28.733 0 1.333-.16 1.802-.482.469-.321.703-.73.703-1.228 0-.292-.036-.533-.11-.723-.073-.19-.227-.365-.46-.526-.235-.16-.58-.307-1.034-.439a22.365 22.365 0 0 0-1.78-.416c-2.46-.497-4.182-1.235-5.163-2.214-.982-.98-1.473-2.331-1.473-4.056 0-1.257.235-2.39.704-3.398a7.038 7.038 0 0 1 2.021-2.564c.88-.702 1.941-1.243 3.186-1.623 1.246-.38 2.63-.57 4.153-.57 2.49 0 4.908.483 7.252 1.447l-2.681 5.174zm15.381-5.787v22.491h-7.954V13.285h7.954zm-8.481-8.638c0-.613.117-1.19.351-1.731a4.548 4.548 0 0 1 2.395-2.39 4.335 4.335 0 0 1 1.736-.35c.616 0 1.194.116 1.736.35a4.56 4.56 0 0 1 2.395 2.39c.235.54.352 1.118.352 1.731 0 .614-.117 1.191-.352 1.732a4.548 4.548 0 0 1-2.395 2.39c-.542.233-1.12.35-1.736.35a4.335 4.335 0 0 1-1.736-.35 4.56 4.56 0 0 1-2.395-2.39 4.307 4.307 0 0 1-.351-1.732zm21.446 19.774c0 .76.14 1.454.417 2.082a5.578 5.578 0 0 0 1.1 1.644c.453.468.995.833 1.625 1.096.63.264 1.297.395 2 .395.703 0 1.37-.131 2-.395a4.834 4.834 0 0 0 1.625-1.096 5.578 5.578 0 0 0 1.1-1.644 4.977 4.977 0 0 0 .417-2.038c0-.702-.14-1.367-.418-1.995a5.578 5.578 0 0 0-1.099-1.644 4.834 4.834 0 0 0-1.626-1.097 5.137 5.137 0 0 0-2-.394c-.702 0-1.369.131-1.999.394a4.834 4.834 0 0 0-1.626 1.097 5.667 5.667 0 0 0-1.099 1.622 4.721 4.721 0 0 0-.417 1.973zm-8.394-.088c0-1.666.337-3.222 1.01-4.67a11.47 11.47 0 0 1 2.813-3.77c1.202-1.067 2.63-1.907 4.285-2.52 1.656-.615 3.465-.922 5.428-.922 1.933 0 3.728.3 5.383.9 1.656.598 3.091 1.431 4.307 2.498a11.212 11.212 0 0 1 2.835 3.815c.674 1.476 1.01 3.105 1.01 4.888s-.344 3.413-1.032 4.889a11.605 11.605 0 0 1-2.835 3.814c-1.201 1.067-2.644 1.893-4.329 2.477-1.684.585-3.508.877-5.471.877-1.934 0-3.72-.292-5.362-.877-1.64-.584-3.054-1.417-4.24-2.499a11.596 11.596 0 0 1-2.791-3.88c-.674-1.505-1.011-3.179-1.011-5.02zm31.642-11.048h7.955v2.85c1.084-1.316 2.182-2.2 3.296-2.653 1.113-.453 2.417-.68 3.91-.68 1.583 0 2.938.256 4.066.767a8.105 8.105 0 0 1 2.879 2.17 6.23 6.23 0 0 1 1.318 2.544c.234.935.352 2.002.352 3.2v14.293h-7.955V24.421c0-1.111-.08-2.01-.242-2.697-.16-.687-.446-1.235-.857-1.644-.351-.35-.747-.599-1.186-.745a4.428 4.428 0 0 0-1.406-.22c-1.348 0-2.38.403-3.099 1.206-.718.804-1.076 1.951-1.076 3.442v12.013h-7.955V13.285z"/>
        <path fill="#535FFF" d="M323.063 31.567c0-.701.131-1.366.395-1.995a5.065 5.065 0 0 1 1.099-1.644 5.078 5.078 0 0 1 1.648-1.096 5.137 5.137 0 0 1 2-.395c.703 0 1.37.132 2 .395.629.263 1.178.629 1.647 1.096a5.065 5.065 0 0 1 1.099 1.644c.263.629.395 1.294.395 1.995 0 .702-.132 1.367-.395 1.995a5.065 5.065 0 0 1-1.099 1.644 5.078 5.078 0 0 1-1.648 1.096 5.137 5.137 0 0 1-2 .395c-.703 0-1.37-.132-2-.395a5.078 5.078 0 0 1-1.647-1.096 5.065 5.065 0 0 1-1.099-1.644 5.103 5.103 0 0 1-.395-1.995z"/>
    </g>
</svg>
