<svg xmlns="http://www.w3.org/2000/svg" width="53" height="25" viewBox="0 0 53 25">
    <g fill="none" fill-rule="evenodd">
        <rect width="30.383" height="14.175" y="10.775" fill="#535FFF" rx="3.78"/>
        <path fill="#FAFAFC" d="M11.685 18.011h1.27c1.457 0 2.5-.187 3.13-.56.63-.375.945-.975.945-1.802 0-.827-.315-1.428-.945-1.802-.63-.374-1.673-.56-3.13-.56h-1.27v4.724zm0-9.036h1.063c1.812 0 2.717-.719 2.717-2.156 0-1.437-.905-2.156-2.717-2.156h-1.063v4.312zM5.897.233h8.623c2.048 0 3.603.493 4.666 1.477 1.063.984 1.595 2.402 1.595 4.253 0 1.122-.202 2.052-.605 2.79-.404.738-1.02 1.364-1.846 1.875.827.158 1.53.4 2.111.724.581.325 1.054.723 1.418 1.196a4.47 4.47 0 0 1 .782 1.595c.158.59.237 1.22.237 1.89 0 1.043-.182 1.968-.547 2.776a5.639 5.639 0 0 1-1.535 2.037c-.66.552-1.462.965-2.407 1.24-.945.276-2.008.414-3.19.414H5.898V.233zm23.36 0l5.374 13.555L40.035.233h6.29L36.935 22.5h-4.607L22.966.233h6.29z"/>
        <path fill="#535FFF" d="M45.823 19.665c0-.473.089-.92.266-1.344a3.412 3.412 0 0 1 1.846-1.846 3.445 3.445 0 0 1 1.344-.265c.472 0 .92.088 1.343.266.424.177.793.423 1.108.738a3.445 3.445 0 0 1 1.004 2.451c0 .473-.089.92-.266 1.344a3.412 3.412 0 0 1-.738 1.107 3.412 3.412 0 0 1-1.108.738 3.445 3.445 0 0 1-1.343.266c-.473 0-.92-.088-1.344-.266a3.412 3.412 0 0 1-1.107-.738 3.412 3.412 0 0 1-.739-1.107 3.445 3.445 0 0 1-.266-1.344z"/>
    </g>
</svg>
