<svg xmlns="http://www.w3.org/2000/svg" width="981" height="1203" viewBox="0 0 981 1203">
    <g fill="none" fill-rule="evenodd">
        <path fill="#B28B67" d="M351.326 124.056c10.735-19.775 16.048-42.344 9.547-64.985-18.734-65.235-108.04-31.025-118.909 6.22-10.87 37.245 9.288 121.575 33.788 122.611 9.77.414 28.265-9.617 45.783-25.965l6.307 91.666 74.442-15.824-50.958-113.723z"/>
        <path fill="#191847" d="M360.215 137.748c.528-43.456 21.137-77.383 13.132-95.054-5.337-11.78-14.193-17.93-26.57-18.447C335.5 1.039 313.71-5.22 281.403 5.47c-48.458 16.035-74.376 43.034-51.68 85.496 12.024-2.555 25.617-9.979 47.268-6.812 6.87 1.004 12.98 7.35 18.329 19.036l9.07-1.928c5.708-16.431 13.25-23.626 22.627-21.586 9.377 2.04 13.315 11 11.813 26.881l11.736 33.242 9.649-2.051z"/>
        <path fill="#997659" d="M567.855 446.8L332.278 839.814l-176.615 332.26H117.62L413.542 446.8z"/>
        <path fill="#E4E4E4" d="M178.94 1156.736c3.54 9.448 5.31 16.517 5.31 21.208 0 5.705-.95 14.03-2.852 24.975H2.961c-4.637-15.33-1.96-23.605 8.03-24.828 9.99-1.222 18.29-2.325 24.898-3.31l82.936-36.974a3.164 3.164 0 0 1 4.213 1.684l5.33 12.932c9.25 4.315 16.765 6.473 22.547 6.473 4.698 0 11.186-1.898 19.463-5.692a6.327 6.327 0 0 1 8.562 3.532z"/>
        <path fill="#05DEB8" d="M204.714 1118.87l-73.362-22.146c32.141-95.885 71.536-201.403 118.183-316.554 46.647-115.15 96.744-226.274 150.291-333.37h207.201C547.494 582.272 484.381 705.366 417.688 816.08c-66.693 110.715-137.684 211.645-212.974 302.789z"/>
        <path fill="#B28B67" d="M583.337 446.8c22.234 138.108 65.117 314.557 69.164 320.002 2.698 3.63 99.828 36.109 291.39 97.436l-8.218 33.475c-228.437-32.89-348.803-58.408-361.1-76.553C556.13 793.943 464.031 578.925 428.36 446.8h154.977z"/>
        <path fill="#00FFD2" d="M876.553 835.301l-14.474 53.914c-170.857 14.954-275.545 4.149-314.063-32.415-38.52-36.564-82.42-173.23-131.7-410h197.578c31.224 193.882 48.68 294.893 52.368 303.032 3.688 8.14 73.785 36.629 210.291 85.47z"/>
        <path fill="#E4E4E4" d="M934.477 850.092c9.919-1.845 17.188-2.36 21.808-1.546 5.618.99 13.652 3.372 24.1 7.145L949.4 1031.417c-15.902 1.905-23.587-2.168-23.056-12.22.53-10.05.885-18.415 1.063-25.093l-22.01-88.097a3.164 3.164 0 0 1 2.39-3.856l13.66-3.005c5.856-8.359 9.286-15.385 10.29-21.08.816-4.626.074-11.345-2.226-20.156a6.327 6.327 0 0 1 4.966-7.818z"/>
        <g>
            <path fill="#997659" d="M222.605 439.956L99.596 468.924c-28.366-3.998-53.251-4.524-74.655-1.577-5.59 1.96-13.613 7.34 3.667 13.205s35.197 12.813 35.095 19.522c-.102 6.71-13.115 9.223-11.7 18.94.943 6.477 21.085-.144 60.426-19.862l109.257 1.102.919-60.298zM600.2 325.981l-64.742 25.13c132.355 132.302 201.5 201.632 207.434 207.99 13.353 14.308 8.757 45.668 7.878 61.91 23.653 1.262 8.688-31.292 38.699-29.249 27.392 1.865 52.584 14.628 73.1-12.218 2.522-3.3 3.203-12.344-7.837-14.968-27.505-6.539-68.91-20.567-76.447-27.523-10.278-9.486-69.64-79.843-178.085-211.072z"/>
            <path fill="#AFB9C5" d="M343.87 189.028l-49.468 22.86c30.809 117.628-9.932 215.036-171.661 249.436l35.519 153.074c149.556-36.33 252.686-141.216 219.15-305.139-8.682-42.434-19.382-85.957-33.54-120.23z"/>
            <path fill="#C5CFD6" d="M363.264 164.694l-70.168 47.096c50.656 131.962 40.835 232.332 56.464 337.651l207.722-79.737c15.796 32.403 30.82 66.17 45.341 101.202l155.535-59.704C651.105 337.665 521.16 221.497 368.324 162.698l-5.037 1.933-.023.063z"/>
            <path fill="#000" fill-opacity=".1" d="M452.242 294.023c36.919 80.176 57.86 144.138 62.822 191.887l42.218-16.206c-31.29-64.188-65.607-123.016-105.04-175.68z"/>
        </g>
    </g>
</svg>
