<svg xmlns="http://www.w3.org/2000/svg" width="223" height="603" viewBox="0 0 223 603">
    <g fill="none" fill-rule="evenodd">
        <path fill="#B28B67" d="M16.49 81.165C9.3 72.727 4.435 62.386 5.248 50.8c2.342-33.385 48.815-26.04 57.855-9.191 9.04 16.85 7.965 59.59-3.718 62.602-4.66 1.201-14.585-1.741-24.687-7.83l6.341 44.859H3.6l12.89-60.075z"/>
        <path fill="#191847" d="M79.69 18.25c-.775-2.725-2.86-5.058-5.671-5.75a7.47 7.47 0 0 0-2.087-.208c-.251.01-.322.083-.44-.093-.086-.13-.088-.45-.124-.603a11.358 11.358 0 0 0-.424-1.405c-.588-1.564-1.576-2.948-2.767-4.114-2.229-2.18-5.24-3.686-8.367-3.958-1.712-.149-3.412.13-5.03.686-.838.288-1.65.647-2.442 1.044-.238.12-1.011.705-1.25.667-.265-.042-.795-.698-1.01-.863C47.424 1.617 44.146.816 40.84.841c-3.731.027-7.325.214-10.437 2.488a20.872 20.872 0 0 0-1.883 1.564c-.315.293-.62.596-.91.912-.176.19-.346.385-.51.585-.28.34-.235.451-.625.214-1.498-.91-3.234-1.335-4.982-1.12-1.038.127-2.048.44-3.007.85-.326.139-1.082.696-1.43.701-.345.006-1.09-.51-1.446-.642a11.856 11.856 0 0 0-6.01-.556c-2.082.338-4.128 1.169-5.892 2.317-.85.552-1.59 1.164-2.184 1.985-.257.355-.49.73-.78 1.059-.17.192-.508.39-.6.633.055-.145-2.277-1.044-2.497-1.102-1.172-.306-2.366-.244-3.514.134-2.16.71-4.016 2.303-5.542 3.937-.784.84-1.47 1.767-2.052 2.755-.279.473-.534.96-.767 1.457-.113.24-.188.542-.337.76-.192.279-.321.284-.67.406-1.766.619-3.377 1.667-4.604 3.082-1.24 1.433-2.045 3.197-2.383 5.054-.02.11-.031.563-.095.622-.088.082-.444.046-.578.061-.465.055-.928.136-1.384.244-.84.2-1.658.492-2.432.875-3.017 1.493-5.175 4.291-6.231 7.44-1.108 3.305-1.088 7.091.236 10.334.214.524.468 1.033.767 1.514.184.295.243.296.124.605-.133.345-.376.68-.533 1.017a14.589 14.589 0 0 0-1.102 3.455c-.373 1.952-.558 4.005-.19 5.972.17.914.468 1.807.922 2.62a7.518 7.518 0 0 0 1.312 1.716c.101.098.234.185.32.295.209.27.253.048.145.443-.151.552-.493 1.097-.703 1.635a26.711 26.711 0 0 0-.59 1.682c-.361 1.148-.667 2.317-.858 3.506-.367 2.282-.303 4.715.777 6.81a6.812 6.812 0 0 0 1.927 2.293c.393.3.819.557 1.266.769.23.109.522.156.627.378.113.238-.055.712-.093.98-.332 2.321-.498 4.759.192 7.034.636 2.095 2.035 3.946 3.852 5.17 3.525 2.377 8.277 2.243 11.98.34a12.577 12.577 0 0 0 2.675-1.837c2.052 2.762 6.274 2.674 9.273 1.887 3.736-.98 6.733-3.578 8.46-6.991 2.362 2.875 7.319 1.942 8.956-1.177.401-.763.64-1.605.756-2.456.062-.448.022-.9.069-1.343.059-.566.437-1.116.654-1.664.423-1.065.686-2.166.697-3.315.006-.6-.07-1.185-.127-1.78-.051-.536.097-1.035.182-1.564-.958.158-2.126-.1-3.028-.378-.886-.273-1.716-.991-2.341-1.647-1.452-1.523-2.339-3.519-2.945-5.506-1.332-4.36-.786-9.592 3.6-11.985 2.043-1.115 8.164-1.111 10.598-.56 2.559.58 5.46 6.225 5.602 6.756.088.328.044.735.346.954.663.48 1.756-.354 2.246-.766.844-.712 1.446-1.658 1.967-2.617a32.378 32.378 0 0 0 2.699-6.62c.499-1.764.818-3.583 1.47-5.301.648-1.711 1.67-3.24 3.26-4.209 1.73-1.054 3.713-1.609 5.612-2.271 1.882-.657 3.732-1.46 5.19-2.852.321-.307.633-.632.891-.993.204-.284.406-.83.716-1.01.483-.28 1.188.45 1.605.715 2.06 1.308 3.779 3.132 5.165 5.126 1.378 1.982 2.509 3.89 3.428 6.103.682 1.642 1.107 3.744 2.306 5.09.536.6 4.514.964 5.803.44 1.289-.525 2.733-1.887 3.166-2.74.443-.874.549-1.833.36-2.79-.112-.562-.34-1.088-.464-1.64-.104-.465-.2-.904-.425-1.329a3.276 3.276 0 0 0-2.042-1.627 9.589 9.589 0 0 0 2.205-2.991c.547-1.177 1.01-2.607 1.142-3.898.107-1.048-.058-2.134-.632-3.035-.602-.946-1.669-1.562-2.591-2.152 1.41-1.103 2.616-2.444 3.608-3.93 1.929-2.887 3.122-6.528 2.142-9.97z"/>
        <path fill="#B28B67" d="M-25.035 266.092c2.813 38.391 184.021 151.42 185.079 154.59.47 1.41-18.332 45.965-56.404 133.664l15.84 6.155c58.397-92.88 86.095-144.268 83.096-154.165-4.294-14.17-51.16-60.781-140.598-139.836l-87.013-.408z"/>
        <path fill="#2F3676" d="M107.809 534.54l25.862 9.414c54.533-61.53 75.909-112.298 72.011-138.165-2.598-17.245-49.302-63.779-140.112-139.603h-92.46c3.155 88.908 171.113 154.835 173.36 158.624 2.246 3.788-19.862 40.895-38.661 109.73z"/>
        <path fill="#E4E4E4" d="M97.812 551.322c-3.233 3.781-5.246 6.758-6.037 8.932-.962 2.643-1.926 6.661-2.89 12.053l82.68 30.093c4.734-6.32 4.89-10.607.466-12.858-4.423-2.251-8.082-4.162-10.978-5.733l-32.193-31.12a1.56 1.56 0 0 0-2.237.07l-4.65 5.093c-5.014.44-8.86.172-11.54-.803-2.176-.792-4.862-2.765-8.058-5.92a3.12 3.12 0 0 0-4.563.193z"/>
        <path fill="#997659" d="M-4.2 266.092l-80.724 193.794-79.339 163.837h18.72L59.25 266.093z"/>
        <path fill="#E4E4E4" d="M-165.382 616.16c-1.745 4.658-2.618 8.144-2.618 10.457 0 2.813.469 6.918 1.406 12.315h87.987c2.286-7.559.966-11.64-3.96-12.242-4.926-.603-9.018-1.147-12.277-1.633l-40.895-18.231a1.56 1.56 0 0 0-2.078.83l-2.628 6.377c-4.56 2.127-8.267 3.191-11.118 3.191-2.316 0-5.515-.935-9.597-2.807a3.12 3.12 0 0 0-4.222 1.742z"/>
        <path fill="#5C63AB" d="M-157.098 589.688l41.593 7.8C-83.345 550.207 51.244 356.34 66 266.092h-92.595c-49.28 65.241-99.848 275.533-130.503 323.596z"/>
        <g>
            <path fill="#B28B67" d="M133.08 228.026l56.526-24.824c9.902-9.867 19.464-17.367 28.685-22.499 2.758-.878 7.469-1.143 2.443 6.198-5.027 7.342-9.983 15.29-7.975 17.863 2.008 2.572 7.826-.267 10.124 3.917 1.533 2.789-8.274 6.126-29.42 10.01l-42.334 32.458-18.049-23.123zm-228.527 6.837l31.967 6.343c-32.148 59.912-49.389 91.666-51.722 95.26-5.249 8.089-.351 22.912 1.458 30.718-11.35 2.642-6.873-14.44-21.235-10.873-13.109 3.255-24.224 11.61-36.447.343-1.503-1.386-2.603-5.715 2.52-7.936 12.766-5.533 31.626-15.892 34.684-19.915 4.17-5.484 17.095-36.798 38.775-93.94z"/>
            <path fill="#D33E52" d="M23.404 115.261l13.49-2.314c29.381 28.502 41.371 96.976 60.952 106.04 18.512 8.569 44.756.276 75.95-10.92l9.553 21.343c-28.343 30.664-88.724 56.57-113.2 41.78-39.13-23.644-48.163-108.097-46.745-155.929z"/>
            <path fill="#DDE3E9" d="M-35.4 284.783H83.958c5.454 0 4.426-7.875 3.638-11.85-9.1-45.864-44.62-95.304-44.62-160.591l-34.428-5.399c-28.477 45.8-38.324 102.187-43.948 177.84z"/>
            <path fill="#FF4C64" d="M-47.305 238.347c-24.332 43.89-44.784 75.489-61.357 94.796l-25.018-4.9c16.116-99.946 62.785-173.713 140.007-221.3H19.959c30.907 105.358 39.428 175.558 25.562 210.6H-61.92c1.7-25.64 7.15-52.757 14.615-79.196z"/>
        </g>
    </g>
</svg>
