<svg xmlns="http://www.w3.org/2000/svg" width="252" height="410" viewBox="0 0 252 410">
    <g fill="none" fill-rule="evenodd">
        <path fill="#B28B67" d="M325.098-50.417c-1.624-10.965-.27-22.312 6.559-31.708 19.677-27.07 55.197 3.785 53.934 22.865-1.263 19.08-24.823 54.756-36.327 51.12-4.587-1.451-11.446-9.206-16.786-19.723L314.083 13.54 282.333-6.3l42.765-44.117z"/>
        <path fill="#191847" d="M337.331-45.541c-8.66 5.097-17.661 7.386-23.101 3.986-10.334-6.457-9.048-24.863.234-39.717.326-.521.66-1.033 1.002-1.535-15.618.67-33.28 10.192-47.744 1.154-19.677-12.295-2.691-56.867 24.8-39.689 18.696 11.683 26.19 20.156 31.597 29.14 4.317-3.43 9.015-5.646 13.547-6.413 1.194-.35 2.741-.434 4.566-.268 1.137.066 2.25.237 3.33.516 5.878 1.23 13.575 4.317 21.478 8.88 1.475.852 2.903 1.723 4.275 2.606 4.576-7.273 14.177-9.478 21.47-4.92 7.306 4.565 9.528 14.189 4.963 21.495-4.416 7.066-13.562 9.377-20.768 5.392-4.758-1.262-10.448-3.56-16.37-6.731-.745 2.42-1.918 4.965-3.583 7.629-1.47 2.352-3.288 4.685-5.35 6.92-.317-2.236-1.367-4.222-3.04-5.268-4.68-2.924-10.344-1.11-12.898 2.978-3.242 5.188-2.592 10.813 1.592 13.845z"/>
        <path fill="#2E39CE" d="M152.632 268.958c37.343 10.467 69.562 15.7 96.656 15.7 27.094 0 52.26-8.06 75.499-24.179-36.544-10.743-66.64-16.115-90.287-16.115-23.647 0-50.937 8.198-81.868 24.594z"/>
        <path fill="#997659" d="M281.615 299.746a8.831 8.831 0 0 1-.905-1.772c-4.992-13.229-84.945-155.942-92.91-182.034h90.016c6.056 19.838 33.314 144.331 37.15 169.17 12.104 39.179 37.024 166.067 40.205 174.857 3.347 9.248-15.484 18.881-20.501 7.512-7.985-18.089-27.009-68.141-35.48-98.703-7.94-28.651-14.407-54.428-17.575-69.03z"/>
        <path fill="#B28B67" d="M207.97 317.17c-36.553 9.259-170.258 25.996-179.433 28.621-9.438 2.701-17.714-16.796-6.048-21.019 18.564-6.72 69.715-22.247 100.728-28.583 24.945-5.097 47.707-9.255 62.99-11.69-1.295-43.02-7.213-146.26-3.334-168.559h79.647c-3.72 21.382-35.165 177.4-41.01 193.017-1.854 5.575-7.388 8.039-13.54 8.213z"/>
        <path fill="#E4E4E4" d="M23.32 319.68c-4.89-.909-8.475-1.163-10.753-.761-2.77.488-6.732 1.663-11.884 3.523l15.279 86.65c7.84.94 11.63-1.07 11.369-6.025-.262-4.956-.437-9.081-.525-12.374l10.853-43.44a1.56 1.56 0 0 0-1.178-1.902l-6.736-1.481c-2.887-4.122-4.579-7.587-5.074-10.395-.402-2.281-.036-5.594 1.098-9.939a3.12 3.12 0 0 0-2.449-3.855zM328.965 466.007c-1.746 4.66-2.618 8.145-2.618 10.458 0 2.813.468 6.918 1.406 12.315h87.986c2.287-7.559.967-11.64-3.96-12.242-4.925-.603-9.018-1.147-12.276-1.633l-40.896-18.231a1.56 1.56 0 0 0-2.077.83l-2.629 6.377c-4.56 2.127-8.266 3.191-11.117 3.191-2.317 0-5.516-.935-9.598-2.806a3.12 3.12 0 0 0-4.221 1.741z"/>
        <path fill="#535FFF" d="M183.13 115.94c35.098-10.063 68.307-10.063 99.627 0 10.896 49.823 37.374 69.597 42.03 145.983-52.927 26.355-118.307-18.795-172.79 6.906-15.567-35.95 6.226-122.524 31.133-152.889z"/>
        <g>
            <path fill="#B28B67" d="M360.072 148.857l25.807 56.084c10.038 9.728 17.703 19.158 22.995 28.289.926 2.741 1.274 7.447-6.154 2.55-7.428-4.898-15.461-9.715-17.999-7.662-2.537 2.053.404 7.82-3.74 10.191-2.762 1.58-6.27-8.166-10.521-29.24l-33.192-41.762 22.804-18.45zm-185.3-64.617l30.389 11.802c-42.079 53.45-64.58 81.744-67.502 84.88-6.576 7.059-4.327 22.516-3.901 30.522-11.64.632-4.262-15.422-19.03-14.403-13.479.931-25.88 7.232-35.963-5.993-1.24-1.626-1.571-6.083 3.862-7.381 13.536-3.235 33.915-10.167 37.626-13.599 5.061-4.68 23.234-33.29 54.52-85.828z"/>
            <path fill="#191847" d="M310.285-10.267l13.423 2.674c.89 62.486 19.853 126.232 56.888 191.236l-59.865 33.927c-29.826-83.764-38.163-161.573-10.446-227.837z"/>
            <path fill="#DDE3E9" d="M194.635 126.922l112.142 43.047c-1.732-73.144 5.877-131.793 22.826-175.947L297.71-24.004C254.712 8.548 226.997 58.31 194.635 126.922z"/>
            <path fill="#2F3676" d="M296.985-24.255l.022-.019 2.209.848c2.607 1.105 6.568 2.814 11.884 5.126l-.793 26.497C300.24 37.01 283.257 96.344 259.36 186.2l-73.511-28.218a478.43 478.43 0 0 0-5.976 18.416l-54.66-20.981C168.798 66.312 226.05 6.41 296.968-24.29l.018.034z"/>
            <path fill="#000" fill-opacity=".1" d="M219.983 83.57c-12.172 37.962-16.768 65.59-13.786 82.88l-20.55-7.888c9.362-27.08 20.808-52.078 34.336-74.992z"/>
            <path fill="#FFF" fill-opacity=".2" d="M219.32 119.688l42.717-2.937-6.469 16.851z"/>
        </g>
    </g>
</svg>
