<?xml version="1.0" encoding="UTF-8"?>
<svg width="168px" height="57px" viewBox="0 0 168 57" version="1.1" xmlns="http://www.w3.org/2000/svg" xmlns:xlink="http://www.w3.org/1999/xlink">
    <!-- Generator: sketchtool 52.1 (67048) - http://www.bohemiancoding.com/sketch -->
    <title>7F8D4EA1-F902-4A6C-9407-A5E7C0D18862</title>
    <desc>Created with sketchtool.</desc>
    <g id="Symbols" stroke="none" stroke-width="1" fill="none" fill-rule="evenodd">
        <g id="Looper-Logo-White" fill="#FFFFFF">
            <g id="Group-3" transform="translate(3.000000, 11.000000)">
                <path d="M18.936,29.776 L18.936,34 L11.928,34 C10.6159934,34 9.58400376,33.9760002 8.832,33.928 C8.07999624,33.8799998 7.1440056,33.6880017 6.024,33.352 C4.9039944,33.0159983 3.96000384,32.5120034 3.192,31.84 C2.00799408,30.7519946 1.24000176,29.4480076 0.888,27.928 C0.53599824,26.4079924 0.36,24.6240102 0.36,22.576 L0.36,0.4 L4.872,0.4 L4.872,22.48 C4.872,24.3360093 5.07999792,25.7919947 5.496,26.848 C6.32800416,28.8000098 8.07198672,29.776 10.728,29.776 L18.936,29.776 Z M25.656,13.984 C27.8960112,11.6479883 30.6959832,10.48 34.056,10.48 C35.6880082,10.48 37.2159929,10.7919969 38.64,11.416 C40.0640071,12.0400031 41.3119946,12.8959946 42.384,13.984 C43.4560054,15.0720054 44.295997,16.3439927 44.904,17.8 C45.512003,19.2560073 45.816,20.8159917 45.816,22.48 C45.816,24.1440083 45.520003,25.7039927 44.928,27.16 C44.335997,28.6160073 43.5120053,29.8879946 42.456,30.976 C41.3999947,32.0640054 40.1520072,32.9199969 38.712,33.544 C37.2719928,34.1680031 35.7200083,34.48 34.056,34.48 C32.3599915,34.48 30.8000071,34.1680031 29.376,33.544 C27.9519929,32.9199969 26.7120053,32.0640054 25.656,30.976 C24.5999947,29.8879946 23.776003,28.6160073 23.184,27.16 C22.591997,25.7039927 22.296,24.1440083 22.296,22.48 C22.296,19.087983 23.4159888,16.2560114 25.656,13.984 Z M34.056,14.512 C31.8159888,14.512 30.0160068,15.2479926 28.656,16.72 C27.2959932,18.1920074 26.616,20.1119882 26.616,22.48 C26.616,24.8480118 27.2959932,26.7679926 28.656,28.24 C30.0160068,29.7120074 31.8159888,30.448 34.056,30.448 C36.3280114,30.448 38.1359933,29.7040074 39.48,28.216 C40.8240067,26.7279926 41.496,24.8160117 41.496,22.48 C41.496,20.1439883 40.8240067,18.2320074 39.48,16.744 C38.1359933,15.2559926 36.3280114,14.512 34.056,14.512 Z M53.496,13.984 C55.7360112,11.6479883 58.5359832,10.48 61.896,10.48 C63.5280082,10.48 65.0559929,10.7919969 66.48,11.416 C67.9040071,12.0400031 69.1519946,12.8959946 70.224,13.984 C71.2960054,15.0720054 72.135997,16.3439927 72.744,17.8 C73.352003,19.2560073 73.656,20.8159917 73.656,22.48 C73.656,24.1440083 73.360003,25.7039927 72.768,27.16 C72.175997,28.6160073 71.3520053,29.8879946 70.296,30.976 C69.2399947,32.0640054 67.9920072,32.9199969 66.552,33.544 C65.1119928,34.1680031 63.5600083,34.48 61.896,34.48 C60.1999915,34.48 58.6400071,34.1680031 57.216,33.544 C55.7919929,32.9199969 54.5520053,32.0640054 53.496,30.976 C52.4399947,29.8879946 51.616003,28.6160073 51.024,27.16 C50.431997,25.7039927 50.136,24.1440083 50.136,22.48 C50.136,19.087983 51.2559888,16.2560114 53.496,13.984 Z M61.896,14.512 C59.6559888,14.512 57.8560068,15.2479926 56.496,16.72 C55.1359932,18.1920074 54.456,20.1119882 54.456,22.48 C54.456,24.8480118 55.1359932,26.7679926 56.496,28.24 C57.8560068,29.7120074 59.6559888,30.448 61.896,30.448 C64.1680114,30.448 65.9759933,29.7040074 67.32,28.216 C68.6640067,26.7279926 69.336,24.8160117 69.336,22.48 C69.336,20.1439883 68.6640067,18.2320074 67.32,16.744 C65.9759933,15.2559926 64.1680114,14.512 61.896,14.512 Z M78.696,44.944 L78.696,22.48 C78.696,20.8159917 78.999997,19.2480074 79.608,17.776 C80.216003,16.3039926 81.0479947,15.0320054 82.104,13.96 C83.1600053,12.8879946 84.4079928,12.0400031 85.848,11.416 C87.2880072,10.7919969 88.8239918,10.48 90.456,10.48 C92.0880082,10.48 93.6159929,10.7919969 95.04,11.416 C96.4640071,12.0400031 97.7119946,12.8959946 98.784,13.984 C99.8560054,15.0720054 100.695997,16.3439927 101.304,17.8 C101.912003,19.2560073 102.216,20.8159917 102.216,22.48 C102.216,24.1440083 101.920003,25.7039927 101.328,27.16 C100.735997,28.6160073 99.9120053,29.8879946 98.856,30.976 C97.7999947,32.0640054 96.5520072,32.9199969 95.112,33.544 C93.6719928,34.1680031 92.1200083,34.48 90.456,34.48 C88.4079898,34.48 86.5040088,34.0000048 84.744,33.04 L84.744,28.72 C86.3120078,29.8720058 88.1679893,30.448 90.312,30.448 C91.4640058,30.448 92.5119953,30.248002 93.456,29.848 C94.4000047,29.447998 95.1999967,28.8960035 95.856,28.192 C96.5120033,27.4879965 97.0159982,26.6480049 97.368,25.672 C97.7200018,24.6959951 97.896,23.6320058 97.896,22.48 C97.896,21.3279942 97.7200018,20.2640049 97.368,19.288 C97.0159982,18.3119951 96.5200032,17.4720035 95.88,16.768 C95.2399968,16.0639965 94.4640046,15.512002 93.552,15.112 C92.6399954,14.711998 91.6080058,14.512 90.456,14.512 C89.3359944,14.512 88.3200046,14.7039981 87.408,15.088 C86.4959954,15.4720019 85.7120033,16.0159965 85.056,16.72 C84.3999967,17.4240035 83.8960018,18.2639951 83.544,19.24 C83.1919982,20.2160049 83.016,21.2959941 83.016,22.48 L83.016,44.944 L78.696,44.944 Z M118.536,10.48 C123.976027,10.7040011 126.696,12.9599786 126.696,17.248 C126.696,22.5920267 123.192035,25.264 116.184,25.264 L114.216,25.264 L114.216,21.568 L116.52,21.568 C118.664011,21.568 120.151996,21.2400033 120.984,20.584 C121.816004,19.9279967 122.232,18.8320077 122.232,17.296 C122.232,16.303995 121.864004,15.5600025 121.128,15.064 C120.391996,14.5679975 119.448006,14.32 118.296,14.32 C116.023989,14.32 114.240006,15.119992 112.944,16.72 C111.647994,18.320008 111,20.2399888 111,22.48 C111,24.8480118 111.695993,26.7679926 113.088,28.24 C114.480007,29.7120074 116.295989,30.448 118.536,30.448 C120.55201,30.448 122.199994,29.952005 123.48,28.96 L126.36,31.792 C124.151989,33.584009 121.544015,34.48 118.536,34.48 C114.887982,34.48 111.976011,33.4080107 109.8,31.264 C107.623989,29.1199893 106.536,26.352017 106.536,22.96 C106.536,19.1839811 107.607989,16.1280117 109.752,13.792 C111.896011,11.4559883 114.823981,10.3519994 118.536,10.48 Z M130.776,34 L130.776,20.896 C130.776,17.2159816 131.463993,14.672007 132.84,13.264 C133.512003,12.5599965 134.327995,12.0320018 135.288,11.68 C136.248005,11.3279982 137.087996,11.1200003 137.808,11.056 C138.528004,10.9919997 139.511994,10.96 140.76,10.96 L144.984,10.96 L144.984,14.992 L139.896,14.992 C139.255997,14.992 138.760002,15.0079998 138.408,15.04 C138.055998,15.0720002 137.640002,15.183999 137.16,15.376 C136.679998,15.568001 136.264002,15.8719979 135.912,16.288 C135.303997,17.0560038 135,18.5919885 135,20.896 L135,34 L130.776,34 Z" id="Looper"></path>
                <g id="car-black-side-silhouette" transform="translate(156.500000, 32.000000) scale(-1, 1) translate(-156.500000, -32.000000) translate(148.000000, 28.000000)" fill-rule="nonzero">
                    <path d="M16.743999,3.59039806 C16.720142,3.30237455 16.6933668,2.97643298 16.6410964,2.69517323 C16.6047989,2.49846049 16.5249853,2.23651846 16.2551347,2.23651846 C16.2281036,2.23651846 16.2010212,2.23918297 16.1742973,2.24194996 C16.1576076,2.24353842 16.1409179,2.24579301 16.1135796,2.24630541 C16.1130164,2.24630541 16.104262,2.23779947 16.0931526,2.20546664 C16.0139023,1.97831698 15.6814909,1.69577622 15.2552385,1.35020949 C15.1502369,1.26540627 15.0245523,1.16328372 14.971002,1.11060836 C14.990661,0.974513283 14.9877429,0.807366388 14.8930827,0.69217748 C14.8491059,0.638426072 14.7663742,0.574221578 14.623744,0.574221578 C14.6028051,0.574221578 14.5805351,0.575502593 14.530978,0.579909286 C14.4280754,0.579909286 14.2218606,0.537584536 13.9363442,0.478504104 C13.2001552,0.327293041 11.8298607,0.0455208842 9.77513577,0.00119774988 C6.78338251,-0.0580876448 4.43244131,2.10278044 4.33552854,2.19378378 L4.26621005,2.25824448 C4.14334123,2.31768359 3.75533175,2.45977383 2.56934051,2.6931236 C0.887164041,3.0246504 0.566271652,3.56103718 0.50565637,3.7684592 C0.371370994,3.86878833 0.153893191,4.10808202 0.119438727,4.38959797 C0.0917420487,4.61408312 0.0290277576,4.7059063 0.0290277576,4.7056501 L0,4.74310699 L0,6.32767186 L0.00327650174,6.35657156 C0.0944554017,6.77735952 0.530178938,7 1.2632962,7 C1.49710532,7 1.67250055,6.97612187 1.66569157,6.97612187 C1.67587944,6.97555823 1.76629041,6.97402101 1.92294815,6.97079285 C1.90692401,6.92646971 1.89233334,6.88163417 1.87973929,6.83572258 C1.8675548,6.79145069 1.85639421,6.74687135 1.8477934,6.70121596 C1.82711048,6.59371314 1.81548914,6.48308465 1.81548914,6.36953544 C1.81548914,5.39575874 2.60702028,4.60347631 3.57993652,4.60347631 C4.55285275,4.60347631 5.3444351,5.39575874 5.3444351,6.36953544 C5.3444351,6.45761806 5.33583428,6.54303617 5.3234962,6.62768567 C5.31673842,6.67359727 5.30890553,6.71920141 5.29856407,6.76378075 C5.28796664,6.80994855 5.27685725,6.85560394 5.26277853,6.90043948 C7.46612356,6.85319563 10.2697851,6.7908358 12.4411843,6.7362133 C12.4316107,6.69163396 12.4255185,6.64649098 12.4194263,6.60083559 C12.413334,6.55574384 12.4098527,6.5106521 12.4074977,6.46504795 C12.4059107,6.43317629 12.4027366,6.40191951 12.4027366,6.36953544 C12.4027366,5.39575874 13.1943189,4.60347631 14.167184,4.60347631 C15.1263286,4.60347631 15.9078255,5.37398148 15.9295835,6.32920907 C15.9295835,6.34248039 15.9316825,6.35595668 15.9316825,6.36953544 C15.9316825,6.40376417 15.9285084,6.43717306 15.9263582,6.47114558 C15.9236961,6.51941425 15.9189349,6.56742671 15.9125867,6.61467055 C16.3271665,6.54621309 16.6389462,6.32756937 16.8194609,5.97390663 C17.1282712,5.3692161 16.9708455,4.55044227 16.8600076,4.37658285 C16.8001603,4.28250508 16.770467,3.91475117 16.743999,3.59039806 Z" id="Shape"></path>
                    <path d="M2.12411275,7.09741796 C2.35515893,7.62848472 2.88370538,8 3.49974282,8 C4.13789734,8 4.68146281,7.60076124 4.8982615,7.0393478 C4.9154408,6.99459932 4.93076844,6.9487707 4.94383294,6.90191338 C4.95633165,6.8571649 4.96672153,6.81133628 4.97525975,6.76499331 C4.99043308,6.67899393 5,6.59052567 5,6.50005144 C5,5.67148442 4.32856702,5 3.5,5 C2.67143298,5 2,5.67148442 2,6.50005144 C2,6.61243699 2.01332167,6.72183932 2.03687892,6.82733258 C2.04685732,6.8731612 2.05884168,6.91816686 2.07334636,6.96209238 C2.08815965,7.00848678 2.10508178,7.05318383 2.12411275,7.09741796 Z" id="Shape"></path>
                    <path d="M13.0452628,6.86093919 C13.2071803,7.514513 13.7963687,8 14.5,8 C15.2356239,8 15.8463635,7.46976529 15.9741796,6.77113515 C15.9824092,6.72587309 15.9887872,6.68030243 15.9933134,6.63370309 C15.9973254,6.58952115 16,6.54528777 16,6.50002572 C16,6.4989456 16,6.49786548 16,6.49652819 C15.9984055,5.66987844 15.3272297,5 14.5,5 C13.6716902,5 13,5.6714729 13,6.50002572 C13,6.5301147 13.0029318,6.55938073 13.0045263,6.58921254 C13.0072009,6.63529755 13.0117272,6.68050817 13.0186195,6.72530732 C13.0255632,6.77118659 13.0346158,6.81644864 13.0452628,6.86093919 Z" id="Shape"></path>
                </g>
            </g>
        </g>
    </g>
</svg>